<?xml version="1.0" encoding="UTF-8"?>
<svg version="1.1" xmlns="http://www.w3.org/2000/svg" width="512" height="512">
<path d="M0 0 C1.54494141 0.39251953 1.54494141 0.39251953 3.12109375 0.79296875 C14.72029931 4.17668604 24.27858116 11.01377026 30.46875 21.484375 C39.6178559 39.03789213 36.13103553 56.18070209 31.375 74.44140625 C30.8777823 76.4161442 30.38251823 78.3913749 29.88903809 80.36705017 C28.83270022 84.57944926 27.76341678 88.78825209 26.68334961 92.99462891 C24.97716617 99.63968279 23.29976434 106.29179077 21.62695312 112.9453125 C19.58634333 121.05427077 17.53906283 129.16148526 15.48323822 137.26659966 C9.92829936 159.17293894 4.50793082 181.11232749 -0.90771484 203.05343628 C-2.48279349 209.43314818 -4.0633255 215.81150172 -5.64453125 222.18969727 C-6.37558141 225.14064463 -7.10648481 228.09162829 -7.83729553 231.04263496 C-8.29475458 232.88914721 -8.75254112 234.73557837 -9.2106781 236.58192253 C-9.83485938 239.09797668 -10.45764546 241.61437217 -11.08007812 244.13085938 C-11.26167984 244.86145852 -11.44328156 245.59205767 -11.63038635 246.34479618 C-13.15796653 252.53130661 -14.12222197 257.92224955 -14.0625 264.3125 C-14.05347656 265.56675781 -14.04445313 266.82101562 -14.03515625 268.11328125 C-14.02355469 269.06589844 -14.01195312 270.01851563 -14 271 C-5.36595172 271.8615717 0.48608443 268.92273163 8.125 265.125 C26.88759446 255.9875105 26.88759446 255.9875105 36 257 C39.0173309 258.75684418 41.41479328 260.82958656 43 264 C43.81434216 270.65046097 41.77101885 274.7352659 38 280 C22.2849527 298.92374667 1.90031002 312.84957464 -18 327 C-18.8353125 327.59522461 -19.670625 328.19044922 -20.53125 328.80371094 C-41.24494285 343.53570107 -41.24494285 343.53570107 -51 349 C-51.64622314 349.42885498 -52.29244629 349.85770996 -52.95825195 350.29956055 C-60.54159519 354.84827171 -67.93819091 354.79886238 -76.53100586 354.70678711 C-78.93095234 354.68755248 -81.32509495 354.72704438 -83.72460938 354.77148438 C-94.85105543 354.83299545 -101.90459568 352.68366218 -110.8671875 345.796875 C-115.9058694 340.66016427 -119.27348617 335.66097682 -122 329 C-122.4125 328.05125 -122.825 327.1025 -123.25 326.125 C-125.12155341 318.32686078 -125.27317955 311.1716939 -123.80493164 303.28320312 C-123.67101296 302.54754875 -123.53709429 301.81189438 -123.39911747 301.05394745 C-121.7357972 292.20763892 -119.52638939 283.50144918 -117.30859375 274.78125 C-116.84563529 272.94175594 -116.38325388 271.10211656 -115.92140198 269.26234436 C-114.94121432 265.36205488 -113.95753971 261.46266961 -112.97094727 257.56399536 C-111.41776583 251.42565358 -109.87294758 245.28522791 -108.33007812 239.14428711 C-108.0712768 238.11425662 -107.81247547 237.08422613 -107.54583168 236.0229826 C-107.0213455 233.93543476 -106.49688888 231.8478795 -105.9724617 229.76031685 C-105.18215806 226.61538054 -104.39112429 223.47062861 -103.59994507 220.32591248 C-98.86734859 201.50911057 -94.19838341 182.67693556 -89.56004715 163.83670044 C-89.01000015 161.60310791 -88.45942662 159.36964587 -87.90866089 157.13623047 C-87.55555122 155.7041043 -87.20245251 154.27197544 -86.84936523 152.83984375 C-86.67778176 152.14397093 -86.50619829 151.44809811 -86.32941532 150.73113823 C-85.49762031 147.35547721 -84.66833158 143.9792362 -83.84461975 140.60159302 C-82.40901246 134.71683055 -80.96472424 128.83512968 -79.46183777 122.96716022 C-78.9551252 120.98357075 -78.45445012 118.9985571 -77.95581055 117.01292419 C-77.34222431 114.57473192 -76.71827274 112.13911149 -76.08129883 109.70692444 C-74.28591739 102.50190188 -73.08813322 95.43782975 -74 88 C-74.66 87.01 -75.32 86.02 -76 85 C-84.0208837 85.34327373 -89.96672336 87.9383921 -97.125 91.4375 C-113.4580152 99.30191731 -113.4580152 99.30191731 -120.6875 99.25 C-121.41324219 99.25515625 -122.13898438 99.2603125 -122.88671875 99.265625 C-125.33352268 98.95807848 -126.9105953 98.30145123 -129 97 C-131.33623843 93.61648227 -131.98534343 91.4323688 -132.125 87.3125 C-129.05671358 70.91731299 -110.43640705 57.83536865 -97.86572266 48.40820312 C-95.90950432 46.93169601 -93.97496718 45.42991363 -92.04296875 43.921875 C-82.00885004 36.11624057 -71.69224313 28.77004096 -61.22998047 21.55126953 C-59.28509982 20.19832759 -57.35878553 18.82506964 -55.44140625 17.43359375 C-39.06681366 5.67904851 -20.72817294 -5.52925979 0 0 Z " fill="#0000E5" transform="translate(299,158)"/>
<path d="M0 0 C1.27230469 0.40025391 1.27230469 0.40025391 2.5703125 0.80859375 C17.07134107 5.92259286 28.96371696 17.52663077 36 31 C43.39215858 48.63039373 44.19517499 65.95486413 38 84 C31.16610779 100.26424802 18.2424113 112.36684135 2 119 C-14.09245824 124.82742049 -31.18261201 124.02413619 -46.90234375 117.47265625 C-62.78813948 109.92039271 -73.60324721 98.07969951 -80.375 81.8125 C-85.99425707 64.60352524 -84.54601582 46.98360369 -76.91015625 30.671875 C-68.78178747 15.01723883 -55.7270562 4.44375214 -39.01953125 -0.96484375 C-26.09453523 -4.44897311 -12.69775593 -4.25098786 0 0 Z " fill="#0000E5" transform="translate(300,8)"/>
</svg>
